<svg xmlns="http://www.w3.org/2000/svg" viewBox="0 0 512 512">
  <defs>
    <linearGradient id="grad1" x1="0%" y1="0%" x2="100%" y2="100%">
      <stop offset="0%" style="stop-color:#2563eb;stop-opacity:1" />
      <stop offset="100%" style="stop-color:#4f46e5;stop-opacity:1" />
    </linearGradient>
  </defs>
  <circle cx="256" cy="256" r="240" fill="url(#grad1)" />
  <path d="M360 224H288V152C288 138.7 277.3 128 264 128H248C234.7 128 224 138.7 224 152V224H152C138.7 224 128 234.7 128 248V264C128 277.3 138.7 288 152 288H224V360C224 373.3 234.7 384 248 384H264C277.3 384 288 373.3 288 360V288H360C373.3 288 384 277.3 384 264V248C384 234.7 373.3 224 360 224Z" fill="white" />
</svg>